<?xml version="1.0" encoding="UTF-8" standalone="no"?>
<!-- Created with Inkscape (http://www.inkscape.org/) -->

<svg
   xmlns:dc="http://purl.org/dc/elements/1.1/"
   xmlns:cc="http://creativecommons.org/ns#"
   xmlns:rdf="http://www.w3.org/1999/02/22-rdf-syntax-ns#"
   xmlns:svg="http://www.w3.org/2000/svg"
   xmlns="http://www.w3.org/2000/svg"
   xmlns:sodipodi="http://sodipodi.sourceforge.net/DTD/sodipodi-0.dtd"
   xmlns:inkscape="http://www.inkscape.org/namespaces/inkscape"
   width="410mm"
   height="297mm"
   viewBox="0 0 410 297"
   version="1.1"
   id="svg8"
   inkscape:version="0.92.4 (5da689c313, 2019-01-14)"
   sodipodi:docname="ExtrinsicEstimationTemplate.svg">
  <defs
     id="defs2">
    <marker
       style="overflow:visible"
       refY="0"
       refX="0"
       orient="auto"
       id="DistanceX">
      <path
         id="path12"
         style="stroke:#000000;stroke-width:0.5"
         d="M 3,-3 -3,3 M 0,-5 V 5"
         inkscape:connector-curvature="0" />
    </marker>
    <pattern
       y="0"
       x="0"
       width="8"
       patternUnits="userSpaceOnUse"
       id="Hatch"
       height="8">
      <path
         id="path15"
         stroke-width="0.25"
         stroke="#000000"
         linecap="square"
         d="M8 4 l-4,4" />
      <path
         id="path17"
         stroke-width="0.25"
         stroke="#000000"
         linecap="square"
         d="M6 2 l-4,4" />
      <path
         id="path19"
         stroke-width="0.25"
         stroke="#000000"
         linecap="square"
         d="M4 0 l-4,4" />
    </pattern>
    <symbol
       id="*Model_Space" />
    <symbol
       id="*Paper_Space" />
    <symbol
       id="*Paper_Space0" />
  </defs>
  <sodipodi:namedview
     id="base"
     pagecolor="#ffffff"
     bordercolor="#666666"
     borderopacity="1.0"
     inkscape:pageopacity="0.0"
     inkscape:pageshadow="2"
     inkscape:zoom="0.35"
     inkscape:cx="47.142857"
     inkscape:cy="560"
     inkscape:document-units="mm"
     inkscape:current-layer="layer1"
     showgrid="false"
     inkscape:window-width="2560"
     inkscape:window-height="1377"
     inkscape:window-x="-8"
     inkscape:window-y="-8"
     inkscape:window-maximized="1" />
  <metadata
     id="metadata5">
    <rdf:RDF>
      <cc:Work
         rdf:about="">
        <dc:format>image/svg+xml</dc:format>
        <dc:type
           rdf:resource="http://purl.org/dc/dcmitype/StillImage" />
        <dc:title></dc:title>
      </cc:Work>
    </rdf:RDF>
  </metadata>
  <g
     inkscape:label="Layer 1"
     inkscape:groupmode="layer"
     id="layer1">
    <g
       id="g157">
      <path
         inkscape:connector-curvature="0"
         d="m 24.620757,283.12924 a 10.75,10.75 0 1 0 -21.4999995,0 10.75,10.75 0 1 0 21.4999995,0 z"
         style="fill:none;stroke:#ff0000;stroke-width:0.238125;stroke-linecap:round"
         id="path27" />
      <path
         inkscape:connector-curvature="0"
         d="m 24.620757,154.87924 a 10.75,10.75 0 1 0 -21.4999995,0 10.75,10.75 0 1 0 21.4999995,0 z"
         style="fill:none;stroke:#ff0000;stroke-width:0.238125;stroke-linecap:round"
         id="path29" />
      <path
         inkscape:connector-curvature="0"
         d="m 24.620757,26.629241 a 10.75,10.75 0 1 0 -21.4999995,0 10.75,10.75 0 1 0 21.4999995,0 z"
         style="fill:none;stroke:#ff0000;stroke-width:0.238125;stroke-linecap:round"
         id="path33" />
      <path
         inkscape:connector-curvature="0"
         d="m 211.87076,154.87924 a 10.75,10.75 0 1 0 -21.5,0 10.75,10.75 0 1 0 21.5,0 z"
         style="fill:none;stroke:#ff0000;stroke-width:0.238125;stroke-linecap:round"
         id="path37" />
      <path
         inkscape:connector-curvature="0"
         d="m 134.62076,101.96969 a 10.750001,10.750001 0 1 0 -21.5,0 10.750001,10.750001 0 1 0 21.5,0 z"
         style="fill:none;stroke:#ff0000;stroke-width:0.238125;stroke-linecap:round"
         id="path41" />
      <path
         inkscape:connector-curvature="0"
         d="m 134.62076,207.78878 a 10.750001,10.750001 0 1 0 -21.5,0 10.750001,10.750001 0 1 0 21.5,0 z"
         style="fill:none;stroke:#ff0000;stroke-width:0.238125;stroke-linecap:round"
         id="path43" />
      <path
         inkscape:connector-curvature="0"
         d="M 201.06062,12.879242 H 0.06037919"
         style="fill:none;stroke:#000000;stroke-width:0.1683799;stroke-linecap:round"
         id="path49" />
      <path
         inkscape:connector-curvature="0"
         d="M 201.12007,296.87924 V 12.879242"
         style="fill:none;stroke:#000000;stroke-width:0.238125;stroke-linecap:round"
         id="path51" />
      <path
         inkscape:connector-curvature="0"
         d="M 0.06037919,296.87924 H 201.06062"
         style="fill:none;stroke:#000000;stroke-width:0.1683799;stroke-linecap:round"
         id="path53" />
      <path
         inkscape:connector-curvature="0"
         d="M 0.12075824,12.879242 V 296.87924"
         style="fill:none;stroke:#000000;stroke-width:0.238125;stroke-linecap:round"
         id="path55" />
    </g>
    <g
       inkscape:label="FORMAT"
       id="g67"
       transform="matrix(0.26458333,0,0,0.26458333,-25.777295,124.85176)" />
  </g>
</svg>
